Coordinates
version=1
nRows=26
nColumns=24
inDegrees=yes

Units are S.I. units (second, meters, Newtons, ...)
Angles are in degrees.

endheader
time	pelvis_tilt	pelvis_list	pelvis_rotation	pelvis_tx	pelvis_ty	pelvis_tz	hip_flexion_r	hip_adduction_r	hip_rotation_r	knee_angle_r	ankle_angle_r	subtalar_angle_r	mtp_angle_r	hip_flexion_l	hip_adduction_l	hip_rotation_l	knee_angle_l	ankle_angle_l	subtalar_angle_l	mtp_angle_l	lumbar_extension	lumbar_bending	lumbar_rotation
      3.19500000	    -10.09569689	     -4.68616178	     -1.72520046	     -1.31727813	     -0.01283923	      0.51197319	      3.85977844	      9.51136008	     16.69782984	     -7.18644323	      1.38158798	     -7.88418072	     -0.04180657	     36.99417946	     -5.59245966	     -0.88627363	    -46.47760491	     -7.41934728	      0.83559356	     19.18206145	      8.02953623	      3.01525716	      6.05571395
      3.20000000	    -10.10667782	     -4.46998389	     -1.89481866	     -1.31021790	     -0.01350990	      0.51235111	      3.36600917	      9.32298328	     17.00354724	     -7.14032999	      1.68385017	     -8.15769563	     -0.33951090	     37.30786441	     -5.46070770	     -1.10242559	    -44.94081925	     -7.13347029	      0.78343456	     18.14753474	      7.98582015	      2.80416926	      6.44827866
      3.20500000	    -10.20486301	     -4.28219086	     -2.11000359	     -1.30316767	     -0.01430131	      0.51271349	      2.98381267	      9.15806552	     17.33157107	     -7.11883352	      1.97734603	     -8.29782927	     -0.45931195	     37.67302273	     -5.39835998	     -1.34559752	    -43.30974514	     -7.01177371	      0.68765200	     17.45433422	      8.03370556	      2.64720030	      6.84825736
      3.21000000	    -10.23377381	     -4.09473147	     -2.30690586	     -1.29611950	     -0.01509732	      0.51308481	      2.54100759	      8.99587692	     17.61140266	     -7.12254354	      2.28993998	     -8.46318829	     -0.60763050	     37.91962276	     -5.34424432	     -1.60533813	    -41.62200626	     -6.83809101	      0.68442196	     16.63272123	      8.00202505	      2.47720474	      7.25736769
      3.21500000	    -10.21187705	     -3.92876399	     -2.44512283	     -1.28901139	     -0.01593159	      0.51339235	      2.04567013	      8.85196983	     17.78674473	     -7.13490601	      2.63293111	     -8.60646906	     -0.83971113	     38.08208148	     -5.28989827	     -1.84211107	    -39.91425895	     -6.52504950	      0.89483391	     15.56381170	      7.91994253	      2.31468983	      7.57324309
      3.22000000	    -10.31488487	     -3.80235122	     -2.66720693	     -1.28197700	     -0.01696251	      0.51380454	      1.71779690	      8.76449461	     18.02180720	     -7.19935303	      2.96584240	     -8.70211623	     -0.84931842	     38.33451156	     -5.34243765	     -2.12717808	    -38.10601110	     -6.45073776	      0.96478081	     15.08789880	      7.96099424	      2.20973603	      7.96872451
      3.22500000	    -10.31295121	     -3.66436089	     -2.88083754	     -1.27489924	     -0.01790664	      0.51416435	      1.27157039	      8.65258755	     18.23705507	     -7.25818039	      3.28496250	     -8.79011085	     -0.90438528	     38.41629708	     -5.38435820	     -2.44763650	    -36.24370179	     -6.33748255	      1.12642709	     14.47445994	      7.88812702	      2.09590199	      8.38509452
      3.23000000	    -10.29389887	     -3.54617013	     -3.08108038	     -1.26785175	     -0.01890452	      0.51449707	      0.82498121	      8.56373572	     18.40458430	     -7.34948492	      3.61441455	     -8.87768283	     -0.96582842	     38.44993800	     -5.44062370	     -2.75568981	    -34.35408984	     -6.22349155	      1.36478205	     13.86810931	      7.78621428	      1.99891719	      8.78346341
      3.23500000	    -10.28484172	     -3.44264766	     -3.28483118	     -1.26073568	     -0.01995802	      0.51482079	      0.38235185	      8.48515163	     18.56228366	     -7.43436177	      3.93478214	     -8.93494248	     -1.01930474	     38.45517952	     -5.51990149	     -3.09319881	    -32.43266703	     -6.13585578	      1.63154466	     13.34178214	      7.70148629	      1.91616812	      9.16005277
      3.24000000	    -10.34204259	     -3.34126018	     -3.47365932	     -1.25356599	     -0.02114458	      0.51514177	      0.01771499	      8.41201333	     18.70078081	     -7.53493013	      4.25761587	     -9.00356938	     -1.01740244	     38.50693618	     -5.60017939	     -3.44852775	    -30.49163901	     -6.11940455	      1.91998653	     12.99209292	      7.69714335	      1.82669401	      9.46567798
      3.24500000	    -10.25954487	     -3.25456162	     -3.71674190	     -1.24641416	     -0.02215839	      0.51541707	     -0.51240150	      8.32629800	     18.87727452	     -7.60916531	      4.54937928	     -8.96527854	     -1.04968884	     38.36133735	     -5.71776102	     -3.89285958	    -28.54011053	     -6.09648883	      2.19449923	     12.58790743	      7.52892729	      1.77596448	      9.90724075
      3.25000000	    -10.19973369	     -3.15725307	     -3.94285069	     -1.23922083	     -0.02325633	      0.51569176	     -1.00721264	      8.22992758	     19.01278153	     -7.70715590	      4.87018381	     -8.92766254	     -1.05572184	     38.22384572	     -5.81149384	     -4.34618935	    -26.60567363	     -6.09186669	      2.47718118	     12.26831822	      7.38976823	      1.69884284	     10.29611814
      3.25500000	    -10.17109202	     -3.06192568	     -4.16431905	     -1.23196832	     -0.02441893	      0.51588822	     -1.47110674	      8.12284133	     19.13908878	     -7.80300551	      5.18400916	     -8.85431104	     -1.00977607	     38.11228755	     -5.89561609	     -4.83651621	    -24.71067094	     -6.11394461	      2.75927464	     12.04288343	      7.29040692	      1.63473920	     10.66405604
      3.26000000	    -10.03004124	     -2.94904097	     -4.37391856	     -1.22468823	     -0.02547643	      0.51604573	     -2.05839532	      7.97539389	     19.21360708	     -7.89234740	      5.51658736	     -8.70592990	     -0.93277337	     37.86029865	     -5.93579562	     -5.32942363	    -22.85088209	     -6.12792401	      3.02081077	     11.87089911	      7.07018677	      1.53809488	     11.03647762
      3.26500000	     -9.96691047	     -2.85139212	     -4.61728104	     -1.21735331	     -0.02662954	      0.51617055	     -2.56196124	      7.83467250	     19.29902485	     -7.98188983	      5.82317739	     -8.50144239	     -0.76796038	     37.70516103	     -5.99997767	     -5.87275105	    -21.09128383	     -6.14605727	      3.26407921	     11.76050332	      6.94098300	      1.47607495	     11.43409026
      3.27000000	     -9.97548835	     -2.72509881	     -4.85335266	     -1.20993443	     -0.02787979	      0.51626027	     -2.98250757	      7.65994744	     19.38954429	     -8.08518218	      6.13170247	     -8.30123724	     -0.56180204	     37.64273383	     -6.01824027	     -6.40871494	    -19.43964194	     -6.16192152	      3.50306364	     11.65730713	      6.90152796	      1.38655945	     11.78031155
      3.27500000	     -9.85288048	     -2.60148151	     -5.08251435	     -1.20251982	     -0.02895989	      0.51625783	     -3.55443491	      7.45009328	     19.40377746	     -8.15151462	      6.42901241	     -7.93346184	     -0.24570350	     37.44358117	     -6.00416381	     -6.89446692	    -17.88805128	     -6.15857649	      3.74597767	     11.57821654	      6.71774933	      1.29630549	     12.17176207
      3.28000000	     -9.75578765	     -2.45483586	     -5.29605108	     -1.19502246	     -0.03008950	      0.51620334	     -4.08792676	      7.21037267	     19.36992491	     -8.23718215	      6.72608616	     -7.54744693	      0.14075210	     37.28557368	     -5.93334845	     -7.28880203	    -16.45907186	     -6.12097752	      3.93126441	     11.47483534	      6.57212997	      1.17881465	     12.51579207
      3.28500000	     -9.69770835	     -2.29222220	     -5.51743623	     -1.18747691	     -0.03128387	      0.51611922	     -4.56099074	      6.95293724	     19.31928739	     -8.35799244	      7.03364940	     -7.14779347	      0.56192057	     37.18458373	     -5.83097743	     -7.56989606	    -15.16892098	     -6.01828847	      4.08561989	     11.36017516	      6.47636352	      1.05215787	     12.85733002
      3.29000000	     -9.60388047	     -2.12096539	     -5.71562018	     -1.17988874	     -0.03241177	      0.51597209	     -5.07087934	      6.66774637	     19.18543943	     -8.46768530	      7.32649480	     -6.63061044	      1.07999769	     37.05317961	     -5.68438793	     -7.71810656	    -14.00260909	     -5.90088794	      4.23786143	     11.21238760	      6.34767547	      0.91003151	     13.17748308
      3.29500000	     -9.52662694	     -1.93466483	     -5.88370989	     -1.17223810	     -0.03354453	      0.51577065	     -5.55911096	      6.36069398	     18.99334365	     -8.57470485	      7.59113000	     -6.08195250	      1.66014952	     36.94828373	     -5.48836937	     -7.69573535	    -12.96529809	     -5.77576171	      4.36939051	     11.02445523	      6.24608584	      0.74728901	     13.46937667
      3.30000000	     -9.48279374	     -1.73094994	     -6.05717116	     -1.16453596	     -0.03471061	      0.51558808	     -5.98717179	      6.04171745	     18.78326718	     -8.72881480	      7.85118881	     -5.52587751	      2.24906528	     36.87766994	     -5.27150455	     -7.53043131	    -12.05229410	     -5.60848772	      4.49731400	     10.85433931	      6.19104996	      0.56493353	     13.74736622
      3.30500000	     -9.45401379	     -1.51435920	     -6.20939724	     -1.15677648	     -0.03588063	      0.51538952	     -6.38538239	      5.71107957	     18.52576654	     -8.90562239	      8.09718264	     -4.94547025	      2.83985124	     36.82100850	     -5.02442134	     -7.21069226	    -11.25881492	     -5.42847936	      4.64918174	     10.72015845	      6.16005658	      0.36276526	     13.99865125
      3.31000000	     -9.45756226	     -1.27804064	     -6.35943343	     -1.14894067	     -0.03707160	      0.51521763	     -6.73109614	      5.36701189	     18.26495880	     -9.12016196	      8.32133874	     -4.37791791	      3.38018686	     36.78997810	     -4.75911680	     -6.77666074	    -10.58111110	     -5.22823042	      4.82653157	     10.66053164	      6.17755744	      0.13980680	     14.23716554
      3.31500000	     -9.46711837	     -1.02677804	     -6.49021118	     -1.14105809	     -0.03822820	      0.51504889	     -7.05315881	      5.00849866	     17.96825245	     -9.36313561	      8.53564953	     -3.76337377	      3.92149565	     36.75155811	     -4.47075721	     -6.25216372	    -10.00186980	     -5.06990888	      5.06203604	     10.65589147	      6.20892533	     -0.10858895	     14.46568880
      3.32000000	     -9.50423550	     -0.74899227	     -6.61679457	     -1.13304774	     -0.03940402	      0.51490302	     -7.33128569	      4.62850279	     17.67432695	     -9.64232504	      8.72302063	     -3.17261515	      4.40309524	     36.72879785	     -4.15939198	     -5.68316023	     -9.53806726	     -4.88081453	      5.33133281	     10.74483223	      6.29151740	     -0.38814968	     14.67742996
